<?xml version="1.0" encoding="utf-8"?>
<!-- Generator: Adobe Illustrator 27.8.1, SVG Export Plug-In . SVG Version: 6.00 Build 0)  -->
<svg version="1.1" id="Calque_2_00000167382285901930810620000011046789040638511508_"
	 xmlns="http://www.w3.org/2000/svg" xmlns:xlink="http://www.w3.org/1999/xlink" x="0px" y="0px" viewBox="0 0 763.9 900"
	 style="enable-background:new 0 0 763.9 900;" xml:space="preserve">
<style type="text/css">
	.st0{fill:#EDD5DB;}
	.st1{fill:#95003A;}
	.st2{fill:#B9335F;}
	.st3{fill:#AD1A50;}
	.st4{fill:#FFFFFF;}
	.st5{fill:url(#SVGID_1_);}
	.st6{fill:#272655;}
	.st7{fill:#2E3174;}
	.st8{fill:url(#SVGID_00000178913122115241857300000014299716866393309330_);}
	.st9{fill:#5B267C;}
	.st10{fill:#BF3B71;}
	.st11{fill:#5A267B;}
	.st12{fill:#F6C992;}
	.st13{fill:url(#SVGID_00000027600851567501326250000010062734259642105526_);}
	.st14{fill:url(#SVGID_00000162338714943826841790000005401952573521543088_);}
	.st15{fill:#772579;}
	.st16{fill:#F5A54D;}
	.st17{fill:#AC204F;}
	.st18{fill:url(#SVGID_00000021823835561772467050000017140991254874077333_);}
	.st19{opacity:0.15;fill:#FBD3AE;enable-background:new    ;}
	.st20{opacity:0.4;fill:#FBD3AE;enable-background:new    ;}
	.st21{fill:#FBD3AE;}
	.st22{opacity:0.7;fill:#F5A54D;enable-background:new    ;}
	.st23{opacity:0.2;fill:#BF3B71;enable-background:new    ;}
	.st24{opacity:0.2;fill:#F5A54D;enable-background:new    ;}
	.st25{opacity:0.8;fill:#F5A34E;enable-background:new    ;}
	.st26{opacity:0.5;fill:#F5A34E;enable-background:new    ;}
	.st27{fill:#F5A34E;}
	.st28{opacity:0.1;fill:#FFFFFF;enable-background:new    ;}
	.st29{opacity:0.2;fill:#FFFFFF;enable-background:new    ;}
	.st30{fill:#C96C8C;}
	.st31{fill:#AD1F4F;}
	.st32{fill:url(#SVGID_00000095304667278600012180000005526617582390880684_);}
	.st33{fill:url(#SVGID_00000065069138828240736900000000781473120532399793_);}
	.st34{opacity:0.3;fill:#FFFFFF;enable-background:new    ;}
	.st35{fill:url(#SVGID_00000078758048974039351160000017237668496014658972_);}
	.st36{fill:#32B8C5;}
</style>
<g id="Calque_1-2">
	<circle class="st0" cx="382" cy="383.6" r="378.8"/>
	<path class="st1" d="M250.5,645l-80.6-46.5c-10.9-6.3-24.4-6.3-35.3,0l-46.5,26.8c46.5,56,108.8,98.4,180.1,120.4v-70.1
		C268.1,663,261.4,651.4,250.5,645L250.5,645z"/>
	<path class="st2" d="M182.2,73.9c0,6.3,3.4,12.2,8.9,15.4l28.6,16.5c5.5,3.2,12.3,3.2,17.8,0L266,89.2c5.5-3.2,8.9-9,8.9-15.4v-33
		c0-6.3-3.4-12.2-8.9-15.4l-3.7-2.1c-28.3,9.2-55.1,21.7-80.1,37L182.2,73.9L182.2,73.9z"/>
	<g id="Groupe_4571">
		<g id="Groupe_4569">
			<path id="Tracé_4088" class="st3" d="M157.3,871.9c-0.2-0.1-0.3-0.4-0.3-0.6v-16.6c0-0.1,0-0.3-0.1-0.4l-16-30.1
				c-0.1-0.1-0.1-0.3-0.2-0.4c0-0.4,0.3-0.6,0.9-0.6h12c0.5,0,0.9,0.2,1.1,0.6l8.5,17.7c0.2,0.3,0.3,0.3,0.5,0l8.6-17.7
				c0.2-0.4,0.6-0.7,1.1-0.6h12.1c0.3,0,0.5,0.1,0.7,0.2c0.1,0.2,0.1,0.4,0,0.7L170,854.3c-0.1,0.1-0.1,0.3-0.1,0.4v16.6
				c0,0.2-0.1,0.4-0.3,0.6c-0.2,0.2-0.4,0.2-0.7,0.2h-11C157.8,872.2,157.5,872.1,157.3,871.9L157.3,871.9z"/>
			<path id="Tracé_4089" class="st3" d="M226.7,825.2c2.6,1.2,4.8,3.1,6.3,5.5c1.5,2.5,2.3,5.3,2.2,8.2c0.1,2.9-0.7,5.7-2.3,8.1
				c-1.6,2.4-3.9,4.3-6.5,5.4c-3.1,1.3-6.4,2-9.7,1.9h-9.5c-0.3,0-0.4,0.1-0.4,0.4v16.9c0,0.2-0.1,0.4-0.3,0.6
				c-0.2,0.2-0.4,0.3-0.7,0.2h-11.1c-0.2,0-0.5-0.1-0.7-0.2c-0.2-0.1-0.3-0.4-0.3-0.6v-47.4c0-0.2,0.1-0.4,0.3-0.6
				c0.2-0.2,0.4-0.2,0.7-0.2h22.5C220.6,823.2,223.8,823.9,226.7,825.2L226.7,825.2z M220.4,843.4c1.3-1,2-2.6,2-4.2
				c0.1-1.7-0.7-3.3-2-4.3c-1.5-1.1-3.3-1.7-5.2-1.6h-8c-0.3,0-0.4,0.1-0.4,0.4v11.1c0,0.2,0.1,0.4,0.4,0.4h8
				C217.1,845.1,218.9,844.5,220.4,843.4L220.4,843.4z"/>
			<path id="Tracé_4090" class="st3" d="M281.5,833c-0.2,0.2-0.4,0.2-0.7,0.2h-24.5c-0.3,0-0.4,0.1-0.4,0.4v8.6
				c0,0.2,0.1,0.4,0.4,0.4H272c0.2,0,0.5,0.1,0.7,0.2c0.2,0.1,0.3,0.4,0.3,0.6v8.2c0,0.2-0.1,0.4-0.3,0.6c-0.2,0.2-0.4,0.3-0.7,0.2
				h-15.7c-0.3,0-0.4,0.1-0.4,0.4v9.3c0,0.2,0.1,0.4,0.4,0.4h24.4c0.2,0,0.5,0.1,0.7,0.2c0.2,0.1,0.3,0.4,0.3,0.6v8.3
				c0,0.2-0.1,0.4-0.3,0.6c-0.2,0.2-0.4,0.3-0.7,0.2H244c-0.2,0-0.5-0.1-0.7-0.2c-0.2-0.1-0.3-0.4-0.3-0.6v-47.4
				c0-0.2,0.1-0.4,0.3-0.6c0.2-0.2,0.4-0.2,0.7-0.2h36.8c0.2,0,0.5,0.1,0.7,0.2c0.2,0.1,0.3,0.4,0.3,0.6v8.3
				C281.7,832.6,281.6,832.8,281.5,833L281.5,833z"/>
			<path id="Tracé_4091" class="st3" d="M318.3,871.7l-9.2-18.6c-0.1-0.2-0.3-0.3-0.5-0.3h-5.1c-0.3,0-0.4,0.1-0.4,0.4v18.4
				c0,0.2-0.1,0.4-0.3,0.6c-0.2,0.2-0.4,0.3-0.7,0.2H291c-0.2,0-0.5-0.1-0.7-0.2c-0.2-0.1-0.3-0.4-0.3-0.6v-47.4
				c0-0.2,0.1-0.4,0.3-0.6c0.2-0.2,0.4-0.3,0.7-0.2h23.1c3.1-0.1,6.2,0.6,9,1.9c2.5,1.2,4.6,3,6,5.4s2.2,5.2,2.1,8
				c0.1,2.9-0.8,5.8-2.6,8.1c-1.8,2.4-4.3,4.1-7.2,5c-0.3,0.1-0.3,0.3-0.2,0.5l10.3,19.3c0.1,0.1,0.1,0.3,0.2,0.4
				c0,0.4-0.3,0.6-0.9,0.6h-11.7C319,872.4,318.5,872.1,318.3,871.7L318.3,871.7z M303.2,833.6v10c0,0.2,0.1,0.4,0.4,0.4h8.6
				c1.7,0.1,3.3-0.4,4.7-1.4c1.2-0.9,1.8-2.3,1.8-3.8c0.1-1.5-0.6-3-1.8-3.9c-1.3-1-3-1.5-4.7-1.5h-8.6
				C303.3,833.2,303.2,833.3,303.2,833.6L303.2,833.6z"/>
			<path id="Tracé_4092" class="st3" d="M372.9,825.2c2.6,1.2,4.8,3.1,6.3,5.5c1.5,2.5,2.3,5.3,2.2,8.2c0.1,2.9-0.7,5.7-2.3,8.1
				c-1.6,2.4-3.9,4.3-6.5,5.4c-3.1,1.3-6.4,2-9.7,1.9h-9.5c-0.3,0-0.4,0.1-0.4,0.4v16.9c0,0.2-0.1,0.4-0.3,0.6
				c-0.2,0.2-0.4,0.3-0.7,0.2h-11c-0.2,0-0.5-0.1-0.7-0.2c-0.2-0.1-0.3-0.4-0.3-0.6v-47.4c0-0.2,0.1-0.4,0.3-0.6
				c0.2-0.2,0.4-0.2,0.7-0.2h22.5C366.7,823.2,370,823.9,372.9,825.2L372.9,825.2z M366.6,843.4c1.3-1,2-2.6,2-4.2
				c0.1-1.7-0.7-3.3-2-4.3c-1.5-1.1-3.3-1.7-5.2-1.6h-8c-0.3,0-0.4,0.1-0.4,0.4v11.1c0,0.2,0.1,0.4,0.4,0.4h8
				C363.3,845.1,365.1,844.5,366.6,843.4L366.6,843.4z"/>
			<path id="Tracé_4093" class="st3" d="M389.5,872.1c-0.2-0.1-0.3-0.4-0.3-0.6v-47.4c0-0.2,0.1-0.4,0.3-0.6
				c0.2-0.2,0.4-0.2,0.7-0.2h11.1c0.2,0,0.5,0.1,0.7,0.2c0.2,0.1,0.3,0.4,0.3,0.6V862c0,0.2,0.1,0.4,0.4,0.4h24.8
				c0.2,0,0.5,0.1,0.7,0.2c0.2,0.1,0.3,0.4,0.3,0.6v8.3c0,0.2-0.1,0.4-0.3,0.6c-0.2,0.2-0.4,0.3-0.7,0.2h-37.2
				C389.9,872.3,389.7,872.2,389.5,872.1L389.5,872.1z"/>
			<path id="Tracé_4094" class="st3" d="M471.2,871.6l-2-6.2c-0.1-0.2-0.2-0.3-0.4-0.3H451c-0.2,0-0.3,0.1-0.4,0.3l-2,6.2
				c-0.1,0.5-0.6,0.8-1.1,0.7h-11.9c-0.3,0-0.5-0.1-0.7-0.2c-0.2-0.2-0.2-0.5-0.1-0.7l16.7-47.4c0.1-0.4,0.5-0.7,1-0.7h14.7
				c0.5,0,0.9,0.3,1,0.7l16.7,47.4c0.1,0.1,0.1,0.2,0.1,0.4c0,0.4-0.3,0.6-0.9,0.6h-11.9C471.8,872.4,471.4,872.1,471.2,871.6
				L471.2,871.6z M454.1,856.1h11.6c0.3,0,0.4-0.1,0.3-0.4l-5.9-18c-0.1-0.2-0.1-0.3-0.2-0.2c-0.1,0-0.2,0.1-0.2,0.2l-5.8,18
				C453.7,856,453.8,856.1,454.1,856.1L454.1,856.1L454.1,856.1z"/>
			<path id="Tracé_4095" class="st3" d="M524.3,823.5c0.2-0.2,0.4-0.2,0.7-0.2h11c0.2,0,0.5,0.1,0.7,0.2c0.2,0.1,0.3,0.4,0.3,0.6
				v47.4c0,0.2-0.1,0.4-0.3,0.6c-0.2,0.2-0.4,0.3-0.7,0.2h-10.6c-0.4,0-0.9-0.2-1.1-0.6L506.4,845c-0.1-0.1-0.2-0.2-0.3-0.2
				c-0.1,0-0.2,0.1-0.2,0.3l0.1,26.4c0,0.2-0.1,0.4-0.3,0.6c-0.2,0.2-0.4,0.3-0.7,0.2h-11c-0.2,0-0.5-0.1-0.7-0.2
				c-0.2-0.1-0.3-0.4-0.3-0.6v-47.4c0-0.2,0.1-0.4,0.3-0.6c0.2-0.2,0.4-0.2,0.7-0.2h10.7c0.4,0,0.9,0.2,1.1,0.6l17.8,26.7
				c0.1,0.1,0.2,0.2,0.3,0.2s0.2-0.1,0.2-0.3l-0.1-26.3C524,823.9,524.1,823.6,524.3,823.5L524.3,823.5z"/>
			<path id="Tracé_4096" class="st3" d="M577.9,823.5c0.2-0.2,0.4-0.3,0.7-0.2h11.1c0.2,0,0.5,0.1,0.7,0.2c0.2,0.1,0.3,0.4,0.3,0.6
				v47.4c0,0.2-0.1,0.4-0.3,0.6c-0.2,0.2-0.4,0.3-0.7,0.2h-10.6c-0.4,0-0.9-0.2-1.1-0.6L560.1,845c-0.1-0.1-0.2-0.2-0.3-0.2
				s-0.2,0.1-0.2,0.3l0.1,26.4c0,0.2-0.1,0.4-0.3,0.6c-0.2,0.2-0.4,0.3-0.7,0.2h-11.1c-0.2,0-0.5-0.1-0.7-0.2
				c-0.2-0.1-0.3-0.4-0.3-0.6v-47.4c0-0.2,0.1-0.4,0.3-0.6c0.2-0.2,0.4-0.2,0.7-0.2h10.7c0.4,0,0.9,0.2,1.1,0.6l17.8,26.7
				c0.1,0.1,0.2,0.2,0.3,0.2s0.2-0.1,0.2-0.3l-0.1-26.3C577.7,823.9,577.8,823.6,577.9,823.5L577.9,823.5z"/>
			<path id="Tracé_4097" class="st3" d="M600.9,872.1c-0.2-0.1-0.3-0.4-0.3-0.6v-47.4c0-0.2,0.1-0.4,0.3-0.6
				c0.2-0.2,0.4-0.2,0.7-0.2h11.1c0.2,0,0.5,0.1,0.7,0.2c0.2,0.1,0.3,0.4,0.3,0.6v47.4c0,0.2-0.1,0.4-0.3,0.6
				c-0.2,0.2-0.4,0.3-0.7,0.2h-11.1C601.3,872.3,601.1,872.2,600.9,872.1z"/>
			<path id="Tracé_4098" class="st3" d="M654.8,823.5c0.2-0.2,0.4-0.2,0.7-0.2h11.1c0.2,0,0.5,0.1,0.7,0.2c0.2,0.1,0.3,0.4,0.3,0.6
				v47.4c0,0.2-0.1,0.4-0.3,0.6c-0.2,0.2-0.4,0.3-0.7,0.2H656c-0.4,0-0.9-0.2-1.1-0.6l-18-26.7c-0.1-0.1-0.2-0.2-0.3-0.2
				s-0.2,0.1-0.2,0.3l0.1,26.4c0,0.2-0.1,0.4-0.3,0.6c-0.2,0.2-0.4,0.3-0.7,0.2h-11.1c-0.2,0-0.5-0.1-0.7-0.2
				c-0.2-0.1-0.3-0.4-0.3-0.6v-47.4c0-0.2,0.1-0.4,0.3-0.6c0.2-0.2,0.4-0.2,0.7-0.2h10.7c0.4,0,0.9,0.2,1.1,0.6l17.8,26.7
				c0.1,0.1,0.2,0.2,0.3,0.2s0.2-0.1,0.2-0.3l-0.1-26.3C654.5,823.9,654.6,823.6,654.8,823.5L654.8,823.5z"/>
			<path id="Tracé_4099" class="st3" d="M686.6,870.6c-3-1.4-5.5-3.6-7.3-6.3c-1.8-2.8-2.7-6.1-2.6-9.4v-14.4
				c-0.1-3.3,0.8-6.6,2.6-9.4c1.8-2.7,4.3-4.9,7.3-6.3c3.4-1.6,7.2-2.3,10.9-2.2c3.7-0.1,7.5,0.7,10.9,2.1c2.9,1.2,5.5,3.3,7.4,5.9
				c1.7,2.4,2.6,5.3,2.6,8.2v0.4c0,0.2-0.1,0.4-0.3,0.6c-0.2,0.2-0.4,0.3-0.7,0.2h-11.1c-0.2,0-0.5-0.1-0.7-0.2
				c-0.2-0.1-0.3-0.4-0.3-0.6c0-1.8-0.8-3.5-2.1-4.7c-1.6-1.4-3.7-2-5.8-1.9c-2.1-0.1-4.2,0.7-5.8,2.1c-1.5,1.4-2.3,3.4-2.2,5.5
				v15.1c-0.1,2.1,0.8,4.1,2.4,5.5c1.7,1.4,3.9,2.2,6.1,2.1c2,0.1,3.9-0.5,5.5-1.6c1.4-1.1,2.2-2.8,2.1-4.6v-2
				c0-0.2-0.1-0.4-0.4-0.4h-7.8c-0.2,0-0.5-0.1-0.7-0.2c-0.2-0.1-0.3-0.4-0.3-0.6v-7.7c0-0.2,0.1-0.4,0.3-0.6
				c0.2-0.2,0.4-0.3,0.7-0.2h19.9c0.2,0,0.5,0.1,0.7,0.2c0.2,0.1,0.3,0.4,0.3,0.6v9.5c0.1,3.3-0.8,6.5-2.6,9.3
				c-1.8,2.7-4.3,4.9-7.3,6.2c-3.4,1.5-7.2,2.3-10.9,2.2C693.8,873,690,872.2,686.6,870.6L686.6,870.6z"/>
		</g>
		<g id="Groupe_4570">
			<path id="Tracé_4100" class="st3" d="M123.9,872.1c-0.2-0.1-0.3-0.4-0.3-0.6v-18.6c0-0.2-0.1-0.4-0.4-0.4h-14.6
				c-0.3,0-0.4,0.1-0.4,0.4v18.6c0,0.2-0.1,0.4-0.3,0.6c-0.2,0.2-0.4,0.2-0.7,0.2H96.3c-0.2,0-0.5-0.1-0.7-0.2
				c-0.2-0.1-0.3-0.4-0.3-0.6v-47.4c0-0.2,0.1-0.4,0.3-0.6c0.2-0.2,0.4-0.3,0.7-0.2h11.1c0.2,0,0.5,0.1,0.7,0.2
				c0.2,0.1,0.3,0.4,0.3,0.6v18.1c0,0.2,0.1,0.4,0.4,0.4h14.6c0.3,0,0.4-0.1,0.4-0.4v-18.1c0-0.2,0.1-0.4,0.3-0.6
				c0.2-0.2,0.4-0.2,0.7-0.2h9.1c-1.8-3.3-4.5-6.1-7.8-8L101.3,801c-6.4-3.7-14.3-3.7-20.7,0l-24.7,14.2
				c-6.4,3.7-10.4,10.5-10.4,17.9v28.5c0,7.4,3.9,14.2,10.4,17.9l24.7,14.2c6.4,3.7,14.3,3.7,20.7,0l24.7-14.2
				c3.1-1.8,5.6-4.3,7.4-7.3h-8.8C124.3,872.3,124.1,872.2,123.9,872.1z"/>
			<path id="Tracé_4101" class="st4" d="M136.3,833.2c0-3.5-0.9-6.9-2.6-10h-9.1c-0.2,0-0.5,0.1-0.7,0.2c-0.2,0.1-0.3,0.4-0.3,0.6
				v18.1c0,0.2-0.1,0.4-0.4,0.4h-14.6c-0.3,0-0.4-0.1-0.4-0.4V824c0-0.2-0.1-0.4-0.3-0.6c-0.2-0.2-0.4-0.2-0.7-0.2H96.3
				c-0.2,0-0.5,0.1-0.7,0.2c-0.2,0.1-0.3,0.4-0.3,0.6v47.4c0,0.2,0.1,0.4,0.3,0.6c0.2,0.2,0.4,0.2,0.7,0.2h11.1
				c0.2,0,0.5-0.1,0.7-0.2c0.2-0.1,0.3-0.4,0.3-0.6v-18.6c0-0.2,0.1-0.4,0.4-0.4h14.6c0.3,0,0.4,0.1,0.4,0.4v18.6
				c0,0.2,0.1,0.4,0.3,0.6c0.2,0.2,0.4,0.2,0.7,0.2h8.8c1.9-3.2,2.9-6.9,2.9-10.6L136.3,833.2L136.3,833.2z"/>
		</g>
	</g>
	<g>
		<g>
			
				<linearGradient id="SVGID_1_" gradientUnits="userSpaceOnUse" x1="215.2626" y1="72.3025" x2="619.2996" y2="72.3025" gradientTransform="matrix(1 0 0 1 0 100)">
				<stop  offset="0" style="stop-color:#00BCCD"/>
				<stop  offset="1" style="stop-color:#066296"/>
			</linearGradient>
			<path class="st5" d="M286.4,191.1c53.7-7.4,55.7,56.1,113,44.4c26.5-5.4,44.2,0.5,61.1,6.7c-0.4,0.3-0.8,0.5-1.2,0.9l159.9-12.6
				c-1.5-1.9-3.1-3.9-4.8-5.7c-0.3-0.4-0.6-0.6-0.9-1c-8.3-9.1-18.1-17.1-29.2-23.5l-143.1-82.6c-37.8-21.7-84.1-21.7-121.9,0
				L215.3,178C237,181.7,250.6,196.1,286.4,191.1z"/>
			<g>
				<path class="st6" d="M194.5,267.5c50.1,10.7,36.6,19.6,81.8,24.7c42,4.8,60.6-26.1,110.8-15.7c38.7,8,52.3-18.5,73.5-34.2
					c-17-6.2-34.7-12.2-61.1-6.7c-57.3,11.8-59.3-51.9-113-44.4c-35.8,4.9-49.4-9.5-71.1-13.2l-38.8,22.3
					c-25.7,14.9-44.7,38.3-54.2,65.5C145.7,263.7,174,263.1,194.5,267.5z"/>
			</g>
			<path class="st7" d="M626.2,240.3c-5.9-9.4-13.2-17.9-21.6-25.3c-35.3-1.4-61.6,23-104.4,17.1c-53.7-7.4-55.7,56.1-113,44.4
				c-50.2-10.3-68.8,20.4-110.8,15.7c-45.3-5.1-31.9-14-81.8-24.7c-20.4-4.4-48.8-3.7-72.2-1.5l0,0c0,0-6.2,13.2-6.8,39.9v79.8
				l529.9-2.8v-76.9C645.4,305.9,646.8,270,626.2,240.3z"/>
			<g>
				
					<linearGradient id="SVGID_00000143600676442709822580000012795607618034125493_" gradientUnits="userSpaceOnUse" x1="115.4735" y1="290.1659" x2="224.1242" y2="290.1659" gradientTransform="matrix(1 0 0 1 0 100)">
					<stop  offset="0" style="stop-color:#38227C"/>
					<stop  offset="0.1141" style="stop-color:#40247B"/>
					<stop  offset="0.2953" style="stop-color:#572879"/>
					<stop  offset="0.521" style="stop-color:#7D3076"/>
					<stop  offset="0.7798" style="stop-color:#B03B71"/>
					<stop  offset="1" style="stop-color:#E2456D"/>
				</linearGradient>
				<polygon style="fill:url(#SVGID_00000143600676442709822580000012795607618034125493_);" points="224.1,444.9 224.1,370.8 
					169.7,335.5 115.5,335.5 115.5,444.9 				"/>
				<g>
					<rect x="115.2" y="370.8" class="st9" width="54.5" height="2.3"/>
					<rect x="115.2" y="385.2" class="st9" width="54.5" height="2.3"/>
					<rect x="115.2" y="399.4" class="st9" width="54.5" height="2.3"/>
					<rect x="115.2" y="413.8" class="st9" width="54.5" height="2.3"/>
				</g>
				<g>
					<g>
						<rect x="169.7" y="385.2" class="st3" width="54.5" height="2.3"/>
						<rect x="169.7" y="399.4" class="st3" width="54.5" height="2.3"/>
						<rect x="169.7" y="413.8" class="st3" width="54.5" height="2.3"/>
					</g>
					<g>
						<rect x="169.7" y="370.8" class="st3" width="54.5" height="2.3"/>
					</g>
				</g>
			</g>
			<rect x="212.6" y="261" class="st10" width="84.6" height="198.8"/>
			<rect x="212.6" y="261" class="st3" width="84.6" height="14.1"/>
			<rect x="292.3" y="261" class="st11" width="34.4" height="14.1"/>
			<g>
				<g>
					<rect x="228.4" y="295" class="st12" width="7.8" height="14.6"/>
					<rect x="243.5" y="295" class="st12" width="7.8" height="14.6"/>
					<rect x="258.5" y="295" class="st12" width="7.8" height="14.6"/>
					<rect x="273.6" y="295" class="st12" width="7.8" height="14.6"/>
				</g>
				<g>
					<rect x="228.4" y="320.2" class="st12" width="7.8" height="14.6"/>
					<rect x="243.5" y="320.2" class="st12" width="7.8" height="14.6"/>
					<rect x="258.5" y="320.2" class="st12" width="7.8" height="14.6"/>
					<rect x="273.6" y="320.2" class="st12" width="7.8" height="14.6"/>
				</g>
				<g>
					<rect x="228.4" y="345.3" class="st12" width="7.8" height="14.6"/>
					<rect x="243.5" y="345.3" class="st12" width="7.8" height="14.6"/>
					<rect x="258.5" y="345.3" class="st12" width="7.8" height="14.6"/>
					<rect x="273.6" y="345.3" class="st12" width="7.8" height="14.6"/>
				</g>
				<g>
					<rect x="228.4" y="370.6" class="st12" width="7.8" height="14.6"/>
					<rect x="243.5" y="370.6" class="st12" width="7.8" height="14.6"/>
					<rect x="258.5" y="370.6" class="st12" width="7.8" height="14.6"/>
					<rect x="273.6" y="370.6" class="st12" width="7.8" height="14.6"/>
				</g>
			</g>
			
				<linearGradient id="SVGID_00000067222605634717705140000010707116456095925156_" gradientUnits="userSpaceOnUse" x1="392.8797" y1="294.4683" x2="463.1302" y2="294.4683" gradientTransform="matrix(1 0 0 1 0 100)">
				<stop  offset="0" style="stop-color:#C0244F"/>
				<stop  offset="0.2128" style="stop-color:#BD2450"/>
				<stop  offset="0.3929" style="stop-color:#B22455"/>
				<stop  offset="0.5611" style="stop-color:#A1255C"/>
				<stop  offset="0.7221" style="stop-color:#882566"/>
				<stop  offset="0.8765" style="stop-color:#692672"/>
				<stop  offset="0.9721" style="stop-color:#51267C"/>
			</linearGradient>
			<polygon style="fill:url(#SVGID_00000067222605634717705140000010707116456095925156_);" points="437.1,291.8 392.9,291.8 
				392.9,497.1 437.1,497.1 463.1,497.1 463.1,291.8 			"/>
			<g>
				<g>
					<g>
						<g>
							<g>
								<g>
									<rect x="399.3" y="299.9" class="st4" width="3.7" height="5.3"/>
									<rect x="408.4" y="299.9" class="st4" width="3.7" height="5.3"/>
									<rect x="417.7" y="299.9" class="st4" width="3.7" height="5.3"/>
									<rect x="426.9" y="299.9" class="st4" width="3.7" height="5.3"/>
								</g>
								<g>
									<rect x="399.3" y="315.3" class="st4" width="3.7" height="5.3"/>
									<rect x="408.4" y="315.3" class="st4" width="3.7" height="5.3"/>
									<rect x="417.7" y="315.3" class="st4" width="3.7" height="5.3"/>
									<rect x="426.9" y="315.3" class="st4" width="3.7" height="5.3"/>
								</g>
							</g>
							<g>
								<g>
									<rect x="399.3" y="330.6" class="st4" width="3.7" height="5.3"/>
									<rect x="408.4" y="330.6" class="st4" width="3.7" height="5.3"/>
									<rect x="417.7" y="330.6" class="st4" width="3.7" height="5.3"/>
									<rect x="426.9" y="330.6" class="st4" width="3.7" height="5.3"/>
								</g>
							</g>
							<g>
								<g>
									<rect x="399.3" y="346" class="st4" width="3.7" height="5.3"/>
									<rect x="408.4" y="346" class="st4" width="3.7" height="5.3"/>
									<rect x="417.7" y="346" class="st4" width="3.7" height="5.3"/>
									<rect x="426.9" y="346" class="st4" width="3.7" height="5.3"/>
								</g>
							</g>
						</g>
						<g>
							<g>
								<g>
									<rect x="399.3" y="361.4" class="st4" width="3.7" height="5.3"/>
									<rect x="408.4" y="361.4" class="st4" width="3.7" height="5.3"/>
									<rect x="417.7" y="361.4" class="st4" width="3.7" height="5.3"/>
									<rect x="426.9" y="361.4" class="st4" width="3.7" height="5.3"/>
								</g>
							</g>
							<g>
								<g>
									<rect x="399.3" y="376.7" class="st4" width="3.7" height="5.3"/>
									<rect x="408.4" y="376.7" class="st4" width="3.7" height="5.3"/>
									<rect x="417.7" y="376.7" class="st4" width="3.7" height="5.3"/>
									<rect x="426.9" y="376.7" class="st4" width="3.7" height="5.3"/>
								</g>
							</g>
							<g>
								<g>
									<rect x="399.3" y="392.1" class="st4" width="3.7" height="5.3"/>
									<rect x="408.4" y="392.1" class="st4" width="3.7" height="5.3"/>
									<rect x="417.7" y="392.1" class="st4" width="3.7" height="5.3"/>
									<rect x="426.9" y="392.1" class="st4" width="3.7" height="5.3"/>
								</g>
							</g>
						</g>
					</g>
					<g>
						<g>
							<g>
								<g>
									<rect x="399.3" y="407.5" class="st4" width="3.7" height="5.3"/>
									<rect x="408.4" y="407.5" class="st4" width="3.7" height="5.3"/>
									<rect x="417.7" y="407.5" class="st4" width="3.7" height="5.3"/>
									<rect x="426.9" y="407.5" class="st4" width="3.7" height="5.3"/>
								</g>
							</g>
							<g>
								<g>
									<rect x="399.3" y="422.8" class="st4" width="3.7" height="5.3"/>
									<rect x="408.4" y="422.8" class="st4" width="3.7" height="5.3"/>
									<rect x="417.7" y="422.8" class="st4" width="3.7" height="5.3"/>
									<rect x="426.9" y="422.8" class="st4" width="3.7" height="5.3"/>
								</g>
							</g>
							<g>
								<g>
									<rect x="399.3" y="438.2" class="st4" width="3.7" height="5.3"/>
									<rect x="408.4" y="438.2" class="st4" width="3.7" height="5.3"/>
									<rect x="417.7" y="438.2" class="st4" width="3.7" height="5.3"/>
									<rect x="426.9" y="438.2" class="st4" width="3.7" height="5.3"/>
								</g>
							</g>
						</g>
						<g>
							<g>
								<g>
									<rect x="399.3" y="453.6" class="st4" width="3.7" height="5.3"/>
									<rect x="408.4" y="453.6" class="st4" width="3.7" height="5.3"/>
									<rect x="417.7" y="453.6" class="st4" width="3.7" height="5.3"/>
									<rect x="426.9" y="453.6" class="st4" width="3.7" height="5.3"/>
								</g>
							</g>
						</g>
					</g>
				</g>
			</g>
			
				<linearGradient id="SVGID_00000142879491788882157690000005574355831343016870_" gradientUnits="userSpaceOnUse" x1="541.6002" y1="307.6322" x2="645.3706" y2="307.6322" gradientTransform="matrix(1 0 0 1 0 100)">
				<stop  offset="0" style="stop-color:#263171"/>
				<stop  offset="1" style="stop-color:#CD3266"/>
			</linearGradient>
			<path style="fill:url(#SVGID_00000142879491788882157690000005574355831343016870_);" d="M590,291v0.1l-48.4,9.6v223.5h91.6
				c8-16.3,12.2-34.5,12.2-53.3v-165c0-5-0.3-10-0.9-14.9L590,291L590,291z"/>
			<rect x="308.5" y="347.7" class="st10" width="52.8" height="151.5"/>
			<rect x="361.4" y="347.7" class="st9" width="31.5" height="151.5"/>
			<path class="st15" d="M644.3,481.9c-3.7,0-7.2,0.6-10.1,1.8c-0.8-6.8-9.4-12.1-19.9-12.1c-8.5,0-15.5,3.5-18.5,8.2
				c-3.5-2.1-8.2-3.3-13.2-3.3c-10.3,0-18.8,5.1-19.8,11.7c-3.3-1.7-7.4-2.6-11.9-2.6c-11,0-19.9,5.9-19.9,13.1c0,0.1,0,0.1,0,0.3
				l0,0v108.7l53.7-31c34.5-19.9,57-55.5,60.5-94.8C644.7,481.9,644.5,481.9,644.3,481.9z"/>
			<g>
				<rect x="316.1" y="352.2" class="st16" width="37.8" height="2.6"/>
				<rect x="316.1" y="359.6" class="st16" width="37.8" height="2.6"/>
				<rect x="316.1" y="366.9" class="st16" width="37.8" height="2.6"/>
				<rect x="316.1" y="374.2" class="st16" width="37.8" height="2.6"/>
				<rect x="316.1" y="381.7" class="st16" width="37.8" height="2.6"/>
				<rect x="316.1" y="389" class="st16" width="37.8" height="2.6"/>
				<rect x="316.1" y="396.3" class="st16" width="37.8" height="2.6"/>
				<rect x="316.1" y="403.8" class="st16" width="37.8" height="2.6"/>
				<rect x="316.1" y="411.1" class="st16" width="37.8" height="2.6"/>
				<rect x="316.1" y="418.4" class="st16" width="37.8" height="2.6"/>
			</g>
			<g>
				<rect x="369.4" y="352.2" class="st10" width="15.5" height="2.6"/>
				<rect x="369.4" y="359.6" class="st10" width="15.5" height="2.6"/>
				<rect x="369.4" y="366.9" class="st10" width="15.5" height="2.6"/>
				<rect x="369.4" y="374.2" class="st10" width="15.5" height="2.6"/>
				<rect x="369.4" y="381.7" class="st10" width="15.5" height="2.6"/>
				<rect x="369.4" y="389" class="st10" width="15.5" height="2.6"/>
				<rect x="369.4" y="396.3" class="st10" width="15.5" height="2.6"/>
				<rect x="369.4" y="403.8" class="st10" width="15.5" height="2.6"/>
				<rect x="369.4" y="411.1" class="st10" width="15.5" height="2.6"/>
				<rect x="369.4" y="418.4" class="st10" width="15.5" height="2.6"/>
				<rect x="369.4" y="425.9" class="st10" width="15.5" height="2.6"/>
				<rect x="369.4" y="433.2" class="st10" width="15.5" height="2.6"/>
				<rect x="369.4" y="440.5" class="st10" width="15.5" height="2.6"/>
				<rect x="369.4" y="447.8" class="st10" width="15.5" height="2.6"/>
				<rect x="369.4" y="455.3" class="st10" width="15.5" height="2.6"/>
				<rect x="369.4" y="462.6" class="st10" width="15.5" height="2.6"/>
			</g>
			<polygon class="st17" points="398.7,533.9 463.3,530.9 463.3,470.4 366.7,470.4 365,499.7 			"/>
			<polygon class="st16" points="398.5,524.8 384.5,541.5 278.6,542.7 257.3,498.8 366.9,498.8 			"/>
			<path class="st9" d="M475.1,519.9c0-4.5-5.1-8.2-11.6-8.2c-0.4,0-0.8,0-1.3,0c0-0.4,0.1-0.6,0.1-1c0-6.4-7.3-11.7-16.3-11.7
				c-2.3,0-4.5,0.4-6.5,1c-0.5-4.2-5.4-7.6-11.6-7.6c-6,0-11,3.3-11.6,7.6c-1.8-0.4-3.6-0.6-5.5-0.6c-10.1,0-18.5,5.9-18.5,13.2
				c0,0.3,0,0.5,0,0.6c-1.5-0.5-3.3-0.9-5.3-0.9c-6.4,0-11.6,3.7-11.6,8.2c0,4.5,5.1,8.2,11.6,8.2c0.6,0,1.4,0,2.1-0.1
				c5.3,3.1,20,5.3,37.5,5.3c19,0,34.7,32.2,38.5,28.8C470.7,562.1,475.1,524,475.1,519.9z"/>
			<rect x="463.1" y="258.5" class="st10" width="39.6" height="197.1"/>
			<polygon class="st12" points="542.1,455.8 502.6,455.8 502.6,258.5 542.1,284.2 			"/>
			<g>
				<g>
					<g>
						<g>
							<g>
								<g>
									<rect x="468.8" y="266.9" class="st4" width="3.3" height="185.1"/>
									<rect x="477" y="266.9" class="st4" width="3.3" height="185.1"/>
									<rect x="485.2" y="266.9" class="st4" width="3.3" height="185.1"/>
									<rect x="493.4" y="266.9" class="st4" width="3.3" height="185.1"/>
								</g>
							</g>
						</g>
					</g>
				</g>
			</g>
			<g>
				<polygon class="st4" points="508.3,451.9 511.8,451.9 511.8,269.1 508.5,266.9 508.3,266.9 				"/>
				<polygon class="st4" points="520,451.9 520,274.5 516.6,272.1 516.6,451.9 				"/>
				<polygon class="st4" points="528.2,451.9 528.2,279.7 524.9,277.5 524.9,451.9 				"/>
				<polygon class="st4" points="536.5,451.9 536.5,285.1 533.1,282.9 533.1,451.9 				"/>
			</g>
			
				<linearGradient id="SVGID_00000161625889103646778240000011638108827026028965_" gradientUnits="userSpaceOnUse" x1="463.1302" y1="324.9059" x2="542.2029" y2="324.9059" gradientTransform="matrix(1 0 0 1 0 100)">
				<stop  offset="0" style="stop-color:#C96C8C"/>
				<stop  offset="0.2288" style="stop-color:#C86989"/>
				<stop  offset="0.4223" style="stop-color:#C45E80"/>
				<stop  offset="0.6031" style="stop-color:#BD4D72"/>
				<stop  offset="0.776" style="stop-color:#B4345D"/>
				<stop  offset="0.942" style="stop-color:#A81543"/>
				<stop  offset="0.9721" style="stop-color:#A60E3D"/>
			</linearGradient>
			<polygon style="fill:url(#SVGID_00000161625889103646778240000011638108827026028965_);" points="502.6,392.5 463.1,422.9 
				463.1,457.3 502.6,426.9 542.1,457.3 542.1,422.9 			"/>
			<polygon class="st16" points="414.1,540.7 398.5,524.8 447.5,524.8 463.1,540.7 			"/>
			<g>
				<polygon class="st10" points="459,540.7 443.5,524.8 441.9,524.8 457.5,540.7 				"/>
				<polygon class="st10" points="452.5,540.7 436.9,524.8 435.4,524.8 450.9,540.7 				"/>
				<polygon class="st10" points="445.9,540.7 430.4,524.8 428.8,524.8 444.4,540.7 				"/>
				<polygon class="st10" points="439.4,540.7 423.8,524.8 422.2,524.8 437.8,540.7 				"/>
				<polygon class="st10" points="432.8,540.7 417.2,524.8 415.6,524.8 431.2,540.7 				"/>
				<polygon class="st10" points="426.1,540.7 410.6,524.8 409.1,524.8 424.6,540.7 				"/>
				<polygon class="st10" points="419.6,540.7 404.1,524.8 402.5,524.8 418.1,540.7 				"/>
			</g>
			<polygon class="st19" points="381.6,115.7 380.2,114.9 378.9,115.7 378.9,117.4 380.3,118.2 381.6,117.3 			"/>
			<polygon class="st20" points="180.3,218.7 178.9,217.9 177.6,218.7 177.6,220.4 179,221.2 180.3,220.3 			"/>
			<polygon class="st21" points="332.6,230.4 331.2,229.6 329.9,230.4 329.9,231.9 331.4,232.8 332.6,231.9 			"/>
			<polygon class="st22" points="445.9,134.3 444.8,133.7 443.6,134.3 443.6,135.7 444.8,136.4 445.9,135.6 			"/>
			<polygon class="st23" points="263.8,213.8 262.7,213.2 261.5,213.8 261.6,215.2 262.8,215.9 263.9,215.2 			"/>
			<polygon class="st24" points="502.9,216.8 501.8,216 500.6,216.8 500.6,218.1 501.8,218.7 502.9,218.1 			"/>
			<g>
				<polygon class="st25" points="295.3,152.8 294,152.1 292.7,152.8 292.7,154.2 294,155 295.3,154.2 				"/>
				<polygon class="st26" points="219.9,227.3 218.6,226.7 217.3,227.4 217.3,228.9 218.6,229.6 219.9,228.9 				"/>
				<polygon class="st27" points="411.5,164.9 410.2,164.3 408.9,164.9 408.9,166.4 410.2,167.1 411.5,166.4 				"/>
				<polygon class="st28" points="350.4,121.4 349.1,120.7 347.8,121.5 347.8,122.9 349.1,123.5 350.4,122.9 				"/>
				<polygon class="st29" points="392.4,217.4 391.1,216.7 389.9,217.4 389.9,218.8 391.2,219.6 392.4,218.8 				"/>
				<polygon class="st27" points="445.3,207.9 444,207.2 442.7,207.9 442.7,209.5 444,210.1 445.3,209.3 				"/>
				<polygon class="st27" points="541.7,190.8 540.4,190.1 539.3,190.8 539.3,192.3 540.6,193 541.7,192.3 				"/>
			</g>
			<polygon class="st4" points="463.1,457.3 463.1,611.2 524.6,611.2 542.2,601 542.2,457.3 502.7,426.9 			"/>
			<path class="st16" d="M263.8,418.7c-45.3-9.5-53,15.5-102.5,8.6c-21.1-3-34.2,5.1-45.8,15.3v28.6c0,18.8,4.4,36.9,12.2,53.2
				l209.2-4.8v-24.1C321.6,486,292.8,424.7,263.8,418.7z"/>
			<g>
				<g>
					<rect x="548.9" y="315.8" class="st16" width="48" height="2.1"/>
					<rect x="548.9" y="328.5" class="st16" width="48" height="2.1"/>
					<rect x="548.9" y="341.1" class="st16" width="48" height="2.1"/>
					<rect x="548.9" y="353.8" class="st16" width="48" height="2.1"/>
					<rect x="548.9" y="366.4" class="st16" width="48" height="2.1"/>
					<rect x="548.9" y="379.1" class="st16" width="48" height="2.1"/>
					<rect x="548.9" y="391.7" class="st16" width="48" height="2.1"/>
					<rect x="548.9" y="404.4" class="st16" width="48" height="2.1"/>
					<rect x="548.9" y="417" class="st16" width="48" height="2.1"/>
					<rect x="548.9" y="429.7" class="st16" width="48" height="2.1"/>
					<rect x="548.9" y="442.3" class="st16" width="48" height="2.1"/>
				</g>
				<g>
					<rect x="597" y="315.8" class="st30" width="48" height="2.1"/>
					<rect x="597" y="328.5" class="st30" width="48" height="2.1"/>
					<rect x="597" y="341.1" class="st30" width="48" height="2.1"/>
					<rect x="597" y="353.8" class="st30" width="48" height="2.1"/>
					<rect x="597" y="366.4" class="st30" width="48" height="2.1"/>
					<rect x="597" y="379.1" class="st30" width="48" height="2.1"/>
					<rect x="597" y="391.7" class="st30" width="48" height="2.1"/>
					<rect x="597" y="404.4" class="st30" width="48" height="2.1"/>
					<rect x="597" y="417" class="st30" width="48" height="2.1"/>
					<rect x="597" y="429.7" class="st30" width="48" height="2.1"/>
					<rect x="597" y="442.3" class="st30" width="48" height="2.1"/>
				</g>
			</g>
			<polygon class="st31" points="292.4,275.1 292.4,462.9 326.7,462.9 326.7,275.1 322.4,275.1 			"/>
			<g>
				<path class="st9" d="M632.7,501.9H597l18.9,36.1h9.6c5.3-8,9.5-16.6,12.7-25.4L632.7,501.9z"/>
				<path class="st10" d="M625.5,538h-9.6v12.7C619.3,546.7,622.5,542.4,625.5,538z"/>
				<path class="st4" d="M597.1,538v30.3c6.9-5.3,13.4-11.3,18.9-17.7V538l-18.9-36.1V538z"/>
			</g>
			<path class="st10" d="M323.8,550.3c6.7,4.6,8-4.5,20.4-4.6c14.3,0,11-5.8,18.8-9.6c7.3-3.6,16.7,0.4,19.8,4.5l12.8-13.1
				c-7.3-4.4-16.2-8.5-25-9.5c-22.5-2.6-29.9,10-50.3-3.7c-5.1-3.5-11.7-4.4-18.1-4.2v21.1C314.2,529.8,317.2,545.8,323.8,550.3z"/>
			<polygon class="st16" points="303.1,444.1 282.8,424.7 346.6,424.7 366.9,444.1 			"/>
			
				<linearGradient id="SVGID_00000109017038531951808430000006839686187161872528_" gradientUnits="userSpaceOnUse" x1="262.6529" y1="361.765" x2="366.937" y2="361.765" gradientTransform="matrix(1 0 0 1 0 100)">
				<stop  offset="0" style="stop-color:#38227C"/>
				<stop  offset="0.1141" style="stop-color:#40247B"/>
				<stop  offset="0.2953" style="stop-color:#572879"/>
				<stop  offset="0.521" style="stop-color:#7D3076"/>
				<stop  offset="0.7798" style="stop-color:#B03B71"/>
				<stop  offset="1" style="stop-color:#E2456D"/>
			</linearGradient>
			<polygon style="fill:url(#SVGID_00000109017038531951808430000006839686187161872528_);" points="366.9,444.1 303.2,444.1 
				303.2,444.1 282.9,424.7 262.7,444.1 262.7,498.8 303.2,498.8 303.2,498.8 366.9,498.8 			"/>
			
				<radialGradient id="SVGID_00000183247612814635128940000006497300410709685663_" cx="181.5993" cy="416.7173" r="52.8712" gradientTransform="matrix(1 0 0 1 0 100)" gradientUnits="userSpaceOnUse">
				<stop  offset="0" style="stop-color:#57287B"/>
				<stop  offset="0.6526" style="stop-color:#9D2955"/>
				<stop  offset="1" style="stop-color:#BD2944"/>
			</radialGradient>
			<path style="fill:url(#SVGID_00000183247612814635128940000006497300410709685663_);" d="M120.7,506.3c0.5,1.5,0.9,3,1.4,4.5
				h100.6l39.7-40.5H156.1L120.7,506.3z"/>
			<path class="st34" d="M477.6,178.5c16.8-6,33.1-9.8,48.7-11.7l-33.4-19.3c-23.8,6.5-46.2,14.9-65.8,21.2
				c-35.8,11.6-65.9,13.6-86.3,13.1c-2.7-0.1-3.1,3.9-0.5,4.4C371.7,192.4,424.2,197.5,477.6,178.5z"/>
			<path class="st29" d="M422.4,146.4c-19.4,0.5-47.6-1.5-81.4-12.3c-10.4-3.3-20.4-7.3-30.2-11.2l-29,16.8c3.9,1,7.7,2.3,11.6,3.7
				c50.3,18,99.9,13.2,129.5,7.2C425.4,150,424.9,146.3,422.4,146.4z"/>
			<path class="st16" d="M572.8,583.3c-1.2-6.5-6.7-11.4-13.4-11.4c-2.1,0-4,0.5-5.7,1.3c0-0.1,0-0.3,0-0.3c0-7.7-6-13.9-13.6-13.9
				c-3.1,0-5.9,1-8.1,2.8c-0.6-6.9-6.4-12.5-13.5-12.5c-3.5,0-6.7,1.3-9,3.5c-1.9-5.1-6.8-8.7-12.6-8.7c-7.2,0-13,5.7-13.5,12.8
				c-2.1-1.3-4.4-1.9-6.9-1.9c-7.4,0-13.6,6.2-13.6,13.9v10c19.8-0.8,39.6,0.6,58.9,4.5l0,0c14,2.8,28.3,4.4,42.5,4.6L572.8,583.3z"
				/>
			<polygon class="st4" points="414.1,583.8 414.1,540.6 398.5,524.8 383,540.6 383,587.4 			"/>
			<path class="st10" d="M445.3,580.4c5.9-0.6,11.9-1.2,17.9-1.4v-38.3h-49.1V584L445.3,580.4z"/>
			<path class="st9" d="M337.9,580.2c2.6-1.3,5.8-2.4,10.8-3.6c-3.1-2.2-6-4.5-9.5-5.7c-6-2.1-9.1,3-13.9-2.3s-14.9-11.4-23.2-9.2
				v-28.4c12.1-1.3,15,14.8,21.7,19.3c6.7,4.6,8-4.5,20.4-4.6c14.3,0,11-5.8,18.8-9.6c7.3-3.6,16.7,0.4,19.8,4.5c0,0,0,0,0.1,0.1
				v17.1v24.7v4.9l-24.5,2.8c-18.8,2.2-37.6,2.2-56.4,0v-3.9c10.8-10.3,15.8,0.9,25-1.4C327.1,584.9,331,583.7,337.9,580.2z"/>
		</g>
		
			<linearGradient id="SVGID_00000067958733378453706060000003906396592911943558_" gradientUnits="userSpaceOnUse" x1="121.2528" y1="357.646" x2="302.0805" y2="357.646" gradientTransform="matrix(1 0 0 -1 0 900)">
			<stop  offset="0" style="stop-color:#F4B979"/>
			<stop  offset="1" style="stop-color:#FFFFFF"/>
		</linearGradient>
		<path style="fill:url(#SVGID_00000067958733378453706060000003906396592911943558_);" d="M262.4,470.3l-40.1,40.1H121.3l0.9,0.4
			c0,0,7.7,38.7,62.4,70.5c24.9,14.5,43.9,25.4,57.2,33.1h60.4V510L262.4,470.3z"/>
		<path class="st10" d="M302.1,586.3c10.8-10.3,15.8,0.9,25-1.4c7.7-1.9,9.5-5.7,21.4-8.2c-3.1-2.2-6-4.5-9.5-5.7
			c-6-2.1-9.1,3-13.9-2.3s-14.9-11.4-23.2-9.2C302.1,559.4,302,586.1,302.1,586.3z"/>
		<path class="st36" d="M361.3,668.1l126.4-35.6l76.9-44.4c-82.3-15.3-123.4-9-181.6-0.6c-58.2,8.3-85.8,2.1-85.8,2.1
			c-81.6-16.3-112.6-8.2-112.6-8.2l80.5,46.5L361.3,668.1z"/>
		<path class="st3" d="M265.1,627.8l54.5,31.5c37.8,21.7,84.1,21.7,121.9,0l46.2-26.7c-13.4-2.2-26.8-5.1-47.4-4.1
			C392.5,631,393,651,351.9,650C309.7,649.1,307.9,626.7,265.1,627.8z"/>
	</g>
	<path class="st1" d="M718.1,371.5v-40.3c0-10.1-5.4-19.5-14.2-24.5L669,286.6c-8.8-5.1-19.6-5.1-28.3,0l-34.9,20.1
		c-8.8,5.1-14.2,14.4-14.2,24.5v40.3c0,10.1,5.4,19.5,14.2,24.5l34.9,20.1c8.8,5.1,19.6,5.1,28.3,0l34.9-20.1
		C712.7,391,718.1,381.7,718.1,371.5z"/>
</g>
</svg>
