<?xml version="1.0" encoding="utf-8"?>
<!-- Generator: Adobe Illustrator 27.0.1, SVG Export Plug-In . SVG Version: 6.00 Build 0)  -->
<svg version="1.1" id="Calque_1" xmlns="http://www.w3.org/2000/svg" xmlns:xlink="http://www.w3.org/1999/xlink" x="0px" y="0px"
	 viewBox="0 0 2046.7 299.2" style="enable-background:new 0 0 2046.7 299.2;" xml:space="preserve">
<style type="text/css">
	.st0{fill:#AE194F;}
</style>
<g>
	<path class="st0" d="M340.1,224c-0.6-0.5-0.8-1.1-0.8-1.8v-50.5c0-0.6-0.1-1-0.2-1.3L290.5,79c-0.3-0.6-0.5-1-0.5-1.3
		c0-1.1,0.9-1.7,2.6-1.7h36.5c1.6,0,2.7,0.6,3.3,1.9l25.8,53.9c0.5,0.9,0.9,0.9,1.4,0l26.1-53.9c0.6-1.3,1.7-1.9,3.3-1.9h36.7
		c1.1,0,1.9,0.2,2.3,0.7c0.4,0.5,0.4,1.2-0.1,2.2l-49.3,91.5c-0.2,0.3-0.2,0.7-0.2,1.3v50.5c0,0.7-0.3,1.3-0.8,1.8
		c-0.6,0.5-1.2,0.7-2,0.7h-33.4C341.3,224.8,340.6,224.5,340.1,224z"/>
	<path class="st0" d="M551.1,81.9c8.3,4,14.7,9.6,19.2,16.7c4.5,7.2,6.8,15.5,6.8,24.8c0,9.2-2.3,17.4-7,24.5
		c-4.7,7.1-11.3,12.6-19.8,16.4c-8.5,3.8-18.4,5.8-29.6,5.8h-28.9c-0.8,0-1.2,0.4-1.2,1.1v51.4c0,0.7-0.3,1.3-0.8,1.8
		c-0.6,0.5-1.2,0.7-2,0.7h-33.6c-0.8,0-1.5-0.2-2-0.7c-0.6-0.5-0.8-1.1-0.8-1.8V78.5c0-0.7,0.3-1.3,0.8-1.8c0.6-0.5,1.2-0.7,2-0.7
		h68.5C533.3,76,542.9,78,551.1,81.9z M532,137.2c4-3.3,6-7.5,6-12.8c0-5.4-2-9.8-6-13.1c-4-3.3-9.3-5-15.8-5h-24.4
		c-0.8,0-1.2,0.4-1.2,1.1V141c0,0.7,0.4,1.1,1.2,1.1h24.4C522.7,142.1,527.9,140.4,532,137.2z"/>
	<path class="st0" d="M717.7,105.5c-0.6,0.5-1.2,0.7-2,0.7h-74.4c-0.8,0-1.2,0.4-1.2,1.1v26.2c0,0.7,0.4,1.1,1.2,1.1h47.6
		c0.8,0,1.5,0.2,2,0.7c0.6,0.5,0.8,1.1,0.8,1.8v24.9c0,0.7-0.3,1.3-0.8,1.8c-0.6,0.5-1.2,0.7-2,0.7h-47.6c-0.8,0-1.2,0.4-1.2,1.1
		v28.1c0,0.7,0.4,1.1,1.2,1.1h74.4c0.8,0,1.5,0.2,2,0.7c0.6,0.5,0.8,1.1,0.8,1.8v25.2c0,0.7-0.3,1.3-0.8,1.8c-0.6,0.5-1.2,0.7-2,0.7
		h-112c-0.8,0-1.5-0.2-2-0.7c-0.6-0.5-0.8-1.1-0.8-1.8V78.5c0-0.7,0.3-1.3,0.8-1.8c0.6-0.5,1.2-0.7,2-0.7h112c0.8,0,1.5,0.2,2,0.7
		c0.6,0.5,0.8,1.1,0.8,1.8v25.2C718.5,104.4,718.2,105,717.7,105.5z"/>
	<path class="st0" d="M829.8,223.3l-28-56.7c-0.3-0.6-0.8-0.9-1.4-0.9h-15.6c-0.8,0-1.2,0.4-1.2,1.1v55.9c0,0.7-0.3,1.3-0.8,1.8
		c-0.6,0.5-1.2,0.7-2,0.7h-33.6c-0.8,0-1.5-0.2-2-0.7c-0.6-0.5-0.8-1.1-0.8-1.8V78.5c0-0.7,0.3-1.3,0.8-1.8c0.6-0.5,1.2-0.7,2-0.7
		h70.4c10.4,0,19.6,1.9,27.5,5.8c7.9,3.8,14,9.3,18.4,16.3c4.3,7,6.5,15.1,6.5,24.2c0,9.5-2.6,17.8-7.8,24.7
		c-5.2,7-12.5,12-21.8,15.1c-0.8,0.3-1,0.8-0.7,1.5l31.3,58.6c0.3,0.6,0.5,1,0.5,1.3c0,1.1-0.9,1.7-2.6,1.7h-35.5
		C831.6,225.2,830.5,224.6,829.8,223.3z M783.6,107.3v30.3c0,0.7,0.4,1.1,1.2,1.1h26.3c5.8,0,10.6-1.5,14.2-4.4
		c3.6-2.9,5.4-6.8,5.4-11.6c0-5-1.8-9-5.4-11.9c-3.6-3-8.4-4.5-14.2-4.5h-26.3C784,106.3,783.6,106.6,783.6,107.3z"/>
	<path class="st0" d="M995.8,81.9c8.3,4,14.7,9.6,19.2,16.7c4.5,7.2,6.8,15.5,6.8,24.8c0,9.2-2.3,17.4-7,24.5
		c-4.7,7.1-11.3,12.6-19.8,16.4c-8.5,3.8-18.4,5.8-29.6,5.8h-28.9c-0.8,0-1.2,0.4-1.2,1.1v51.4c0,0.7-0.3,1.3-0.8,1.8
		c-0.6,0.5-1.2,0.7-2,0.7h-33.6c-0.8,0-1.5-0.2-2-0.7c-0.6-0.5-0.8-1.1-0.8-1.8V78.5c0-0.7,0.3-1.3,0.8-1.8c0.6-0.5,1.2-0.7,2-0.7
		h68.5C978,76,987.5,78,995.8,81.9z M976.6,137.2c4-3.3,6-7.5,6-12.8c0-5.4-2-9.8-6-13.1c-4-3.3-9.3-5-15.8-5h-24.4
		c-0.8,0-1.2,0.4-1.2,1.1V141c0,0.7,0.4,1.1,1.2,1.1h24.4C967.3,142.1,972.6,140.4,976.6,137.2z"/>
	<path class="st0" d="M1046.2,224.5c-0.6-0.5-0.8-1.1-0.8-1.8V78.5c0-0.7,0.3-1.3,0.8-1.8c0.6-0.5,1.2-0.7,2-0.7h33.6
		c0.8,0,1.5,0.2,2,0.7c0.6,0.5,0.8,1.1,0.8,1.8v115.3c0,0.7,0.4,1.1,1.2,1.1h75.6c0.8,0,1.5,0.2,2,0.7c0.6,0.5,0.8,1.1,0.8,1.8v25.2
		c0,0.7-0.3,1.3-0.8,1.8c-0.6,0.5-1.2,0.7-2,0.7h-113.2C1047.5,225.2,1046.8,225,1046.2,224.5z"/>
	<path class="st0" d="M1294.8,223.1l-6.2-19c-0.3-0.6-0.7-0.9-1.2-0.9h-54c-0.5,0-0.9,0.3-1.2,0.9l-6.2,19c-0.5,1.4-1.6,2.1-3.3,2.1
		h-36.2c-0.9,0-1.7-0.2-2.1-0.7c-0.5-0.5-0.6-1.2-0.2-2.2l50.7-144.1c0.5-1.4,1.5-2.1,3.1-2.1h44.8c1.6,0,2.6,0.7,3.1,2.1
		l50.9,144.1c0.2,0.3,0.2,0.6,0.2,1.1c0,1.3-0.9,1.9-2.6,1.9h-36.2C1296.4,225.2,1295.3,224.5,1294.8,223.1z M1242.7,176h35.3
		c0.9,0,1.3-0.4,0.9-1.3l-18-54.8c-0.2-0.6-0.4-0.8-0.7-0.7c-0.3,0.1-0.6,0.3-0.7,0.7l-17.8,54.8
		C1241.6,175.5,1241.9,176,1242.7,176z"/>
	<path class="st0" d="M1456.3,76.7c0.6-0.5,1.2-0.7,2-0.7h33.6c0.8,0,1.5,0.2,2,0.7c0.6,0.5,0.8,1.1,0.8,1.8v144.1
		c0,0.7-0.3,1.3-0.8,1.8c-0.6,0.5-1.2,0.7-2,0.7h-32.2c-1.6,0-2.7-0.6-3.3-1.7l-54.5-81.4c-0.3-0.4-0.6-0.6-0.9-0.5
		c-0.3,0.1-0.5,0.4-0.5,1l0.2,80.2c0,0.7-0.3,1.3-0.8,1.8c-0.6,0.5-1.2,0.7-2,0.7h-33.6c-0.8,0-1.5-0.2-2-0.7
		c-0.6-0.5-0.8-1.1-0.8-1.8V78.5c0-0.7,0.3-1.3,0.8-1.8c0.6-0.5,1.2-0.7,2-0.7h32.5c1.6,0,2.7,0.6,3.3,1.7l54.2,81.2
		c0.3,0.4,0.6,0.6,0.9,0.5c0.3-0.1,0.5-0.4,0.5-1l-0.2-79.9C1455.4,77.8,1455.7,77.2,1456.3,76.7z"/>
	<path class="st0" d="M1619.5,76.7c0.6-0.5,1.2-0.7,2-0.7h33.6c0.8,0,1.5,0.2,2,0.7c0.6,0.5,0.8,1.1,0.8,1.8v144.1
		c0,0.7-0.3,1.3-0.8,1.8c-0.6,0.5-1.2,0.7-2,0.7h-32.2c-1.6,0-2.7-0.6-3.3-1.7l-54.5-81.4c-0.3-0.4-0.6-0.6-0.9-0.5
		c-0.3,0.1-0.5,0.4-0.5,1l0.2,80.2c0,0.7-0.3,1.3-0.8,1.8c-0.6,0.5-1.2,0.7-2,0.7h-33.6c-0.8,0-1.5-0.2-2-0.7
		c-0.6-0.5-0.8-1.1-0.8-1.8V78.5c0-0.7,0.3-1.3,0.8-1.8c0.6-0.5,1.2-0.7,2-0.7h32.5c1.6,0,2.7,0.6,3.3,1.7l54.2,81.2
		c0.3,0.4,0.6,0.6,0.9,0.5c0.3-0.1,0.5-0.4,0.5-1l-0.2-79.9C1618.7,77.8,1618.9,77.2,1619.5,76.7z"/>
	<path class="st0" d="M1689.4,224.5c-0.6-0.5-0.8-1.1-0.8-1.8V78.5c0-0.7,0.3-1.3,0.8-1.8c0.6-0.5,1.2-0.7,2-0.7h33.6
		c0.8,0,1.5,0.2,2,0.7c0.6,0.5,0.8,1.1,0.8,1.8v144.1c0,0.7-0.3,1.3-0.8,1.8c-0.6,0.5-1.2,0.7-2,0.7h-33.6
		C1690.6,225.2,1689.9,225,1689.4,224.5z"/>
	<path class="st0" d="M1853.3,76.7c0.6-0.5,1.2-0.7,2-0.7h33.6c0.8,0,1.5,0.2,2,0.7c0.6,0.5,0.8,1.1,0.8,1.8v144.1
		c0,0.7-0.3,1.3-0.8,1.8c-0.6,0.5-1.2,0.7-2,0.7h-32.2c-1.6,0-2.7-0.6-3.3-1.7l-54.5-81.4c-0.3-0.4-0.6-0.6-0.9-0.5
		c-0.3,0.1-0.5,0.4-0.5,1l0.2,80.2c0,0.7-0.3,1.3-0.8,1.8c-0.6,0.5-1.2,0.7-2,0.7h-33.6c-0.8,0-1.5-0.2-2-0.7
		c-0.6-0.5-0.8-1.1-0.8-1.8V78.5c0-0.7,0.3-1.3,0.8-1.8c0.6-0.5,1.2-0.7,2-0.7h32.5c1.6,0,2.7,0.6,3.3,1.7l54.2,81.2
		c0.3,0.4,0.6,0.6,0.9,0.5c0.3-0.1,0.5-0.4,0.5-1l-0.2-79.9C1852.5,77.8,1852.7,77.2,1853.3,76.7z"/>
	<path class="st0" d="M1949.9,220.1c-9.6-4.5-17-10.9-22.3-19.2c-5.3-8.2-7.9-17.8-7.9-28.6v-43.7c0-10.8,2.6-20.3,7.9-28.5
		c5.3-8.2,12.7-14.5,22.3-19.1c9.6-4.5,20.6-6.8,33.3-6.8c12.5,0,23.5,2.2,33.2,6.5c9.6,4.3,17.1,10.3,22.4,17.8
		c5.3,7.5,7.9,15.8,7.9,24.9v1.1c0,0.7-0.3,1.3-0.8,1.8c-0.6,0.5-1.2,0.7-2,0.7h-33.6c-0.8,0-1.5-0.2-2-0.7
		c-0.6-0.5-0.8-1.1-0.8-1.8c0-5.5-2.2-10.3-6.5-14.2c-4.3-3.9-10.2-5.9-17.6-5.9c-7.3,0-13.1,2.1-17.5,6.4
		c-4.4,4.3-6.6,9.8-6.6,16.6v45.8c0,6.8,2.4,12.4,7.3,16.6c4.9,4.3,11.1,6.4,18.5,6.4c6.9,0,12.6-1.7,16.8-5c4.3-3.3,6.4-8,6.4-14
		v-6c0-0.7-0.4-1.1-1.2-1.1h-23.7c-0.8,0-1.5-0.2-2-0.7c-0.6-0.5-0.8-1.1-0.8-1.8v-23.5c0-0.7,0.3-1.3,0.8-1.8
		c0.6-0.5,1.2-0.7,2-0.7h60.6c0.8,0,1.5,0.2,2,0.7c0.6,0.5,0.8,1.1,0.8,1.8v29c0,10.7-2.6,20-7.9,28.1c-5.3,8.1-12.7,14.4-22.3,18.8
		c-9.6,4.4-20.6,6.6-33.3,6.6C1970.6,226.9,1959.5,224.7,1949.9,220.1z"/>
</g>
<g>
	<path class="st0" d="M238.5,224.5c-0.6-0.5-0.8-1.1-0.8-1.8V166c0-0.7-0.4-1.1-1.2-1.1h-44.3c-0.8,0-1.2,0.4-1.2,1.1v56.7
		c0,0.7-0.3,1.3-0.8,1.8c-0.6,0.5-1.2,0.7-2,0.7h-33.6c-0.8,0-1.5-0.2-2-0.7c-0.6-0.5-0.8-1.1-0.8-1.8V78.5c0-0.7,0.3-1.3,0.8-1.8
		c0.6-0.5,1.2-0.7,2-0.7h33.6c0.8,0,1.5,0.3,2,0.7c0.5,0.5,0.8,1.1,0.8,1.8v55c0,0.7,0.4,1.1,1.2,1.1h44.3c0.8,0,1.2-0.3,1.2-1.1
		v-55c0-0.7,0.3-1.3,0.8-1.8c0.6-0.5,1.2-0.7,2-0.7h27.8c-5.5-9.9-13.6-18.4-23.7-24.2l-75-43.3c-19.5-11.3-43.5-11.3-63,0l-75,43.3
		C12,63,0,83.8,0,106.3v86.6c0,22.5,12,43.3,31.5,54.6l75,43.3c19.5,11.3,43.5,11.3,63,0l75-43.3c9.5-5.5,17.2-13.2,22.6-22.3h-26.6
		C239.7,225.2,239,225,238.5,224.5z"/>
</g>
</svg>
