<svg xmlns="http://www.w3.org/2000/svg" viewBox="0 0 369.6 393.8"><defs><style>.cls-1{opacity:.3}</style></defs><g id="Calque_2" data-name="Calque 2"><g id="Calque_1-2" data-name="Calque 1"><g id="Appariteurs"><path d="M278.2 343.5a4.2 4.2 0 0 1-2.1-7.8A176.6 176.6 0 0 0 184.8 8.4 176.6 176.6 0 0 0 8.4 184.8a174.8 174.8 0 0 0 17.4 76.4 4.2 4.2 0 1 1-7.6 3.7 184.8 184.8 0 1 1 345-31.7A183.2 183.2 0 0 1 345 277a185.9 185.9 0 0 1-64.6 66 4.2 4.2 0 0 1-2.2.6ZM169 368.9h-.3c-2.8-.2-5.6-.6-8.4-1a183.5 183.5 0 0 1-56.7-17 4.2 4.2 0 0 1 3.7-7.6 175 175 0 0 0 54 16.4l8 .8a4.2 4.2 0 0 1-.3 8.4Z"/><path d="M259 393.8h-66.2v-40.2h19v-7.1h-19v-30.8h19v-88.6a84 84 0 0 1-53.5-52.1 83 83 0 0 1 20.1-86.3 84.4 84.4 0 0 1 137 26.6 82.9 82.9 0 0 1-12.3 85.2 84.5 84.5 0 0 1-44 28Zm-57.5-7.9h48.9V222.3l3.3-.7a75.4 75.4 0 0 0 58.7-73.4c0-41.4-33.5-75.1-74.6-75.1s-74.5 33.7-74.5 75a75.3 75.3 0 0 0 54.1 72.3l3 .9v103.1h-18.9v14.2h19v23.6h-19Z"/><path d="M238.4 135.6a25 25 0 1 1 25-25 25 25 0 0 1-25 25Zm0-41.7a16.6 16.6 0 1 0 16.7 16.6A16.7 16.7 0 0 0 238.4 94Z"/><path d="M213.6 219.8a132 132 0 0 0 14 3.6 5.6 5.6 0 0 1 4.6 5.5v92a3.4 3.4 0 0 1-3.4 3.4h-12.6Zm5 117.7h2.4a11.8 11.8 0 0 1 11.8 11.8 11.8 11.8 0 0 1-11.8 11.9h-2.4v-23.7Z" class="cls-1"/><path d="M211.5 71.8s-80.4-24-100 57.6c0 0-8.5 40.4 16.6 69.9l-54.3 81.4L58 269.9l-10.5 17.7L61 299.4l-8.7 13.2L36.7 302l-18.2 27 48.7 32.6 93-139.6s31.9 9.3 55.8 2.4c0 0-65.5-20.4-55.9-92.5 0 0 1.6-35.9 51.4-60Z" opacity=".5"/><path d="M263.2 107.2s16.6-7 27-21.5c0 0 6.8 6.5 9.7 11s-13.9 36-48.2 26.4Z" class="cls-1"/><path d="M259.1 99.9c.3-.3 15.6-9.4 17.3-19l8.1 10.1-24.2 19Z" class="cls-1"/><path d="M274.8 49.5c-11.2-7.3-26-11.3-41.5-11.3s-30.4 4-41.6 11.3a46.4 46.4 0 0 0-12 11l-1.4 1.8a82.7 82.7 0 0 1 18.2-.4l2.3-1.6c9.1-6 21.3-9.2 34.5-9.2s25.4 3.3 34.5 9.2c8.2 5.4 12.8 12.2 12.8 19.2s-4.6 13.9-12.8 19.2c-9.1 6-21.4 9.2-34.5 9.2a76.2 76.2 0 0 1-11-.8 14.3 14.3 0 0 0-.3 6.5 19.1 19.1 0 0 0 2.9 6.7 71.2 71.2 0 0 0 8.4.5c15.6 0 30.3-4 41.5-11.2 12-7.8 18.7-18.5 18.7-30s-6.6-22.3-18.7-30.1Z" fill="#1c1c1c"/><path d="M213.3 223.7s-55.2-10-56.3-94.3c0 0-10.9 37-2.4 73a5.7 5.7 0 0 1-.7 4.4L59.4 352.6l9.1 6.2 93.6-139.3 10.7 8.6Z" opacity=".4"/><path d="M205.8 221.7a77 77 0 0 1-16.3 1.7 75.5 75.5 0 0 1-27.8-5.3l-3.1-1.2-92.8 138.9L24.2 328l13.6-20.3 15.8 10.6 13.4-20-16-10.5 8-12 16 10.6 58.4-87.6-2-2.4a77 77 0 0 1-5.4-92.2 76.8 76.8 0 0 1 89.2-29.9 106.5 106.5 0 0 1 13.1-3.4A85 85 0 0 0 119 99.5a85.2 85.2 0 0 0 4 100l-50.4 75.3-15.8-10.6-17.3 25.9 15.8 10.6-4 6L35.4 296l-22.8 34.2 55.6 37.1L161.8 227a85.4 85.4 0 0 0 52 1.3Z"/></g></g></g></svg>