<?xml version="1.0" encoding="UTF-8"?>
<svg id="Calque_2" data-name="Calque 2" xmlns="http://www.w3.org/2000/svg" viewBox="0 0 1922 1080">
  <defs>
    <style>
      .cls-1 {
        opacity: .5;
      }

      .cls-1, .cls-2, .cls-3, .cls-4, .cls-5, .cls-6 {
        stroke-width: 0px;
      }

      .cls-1, .cls-2, .cls-4, .cls-5 {
        fill: #b9335f;
      }

      .cls-3 {
        fill: #edd5db;
      }

      .cls-4 {
        opacity: .7;
      }

      .cls-5 {
        opacity: .2;
      }

      .cls-6 {
        fill: none;
      }
    </style>
  </defs>
  <g id="Calque_1-2" data-name="Calque 1">
    <path class="cls-3" d="m1220,303.04v-99.72c0-25.07-13.37-48.23-35.08-60.76l-86.36-49.86c-21.71-12.53-48.45-12.53-70.16,0l-86.36,49.86c-21.71,12.53-35.08,35.7-35.08,60.76v99.72c0,25.07,13.37,48.23,35.08,60.76l86.36,49.86c21.71,12.53,48.45,12.53,70.16,0l86.36-49.86c21.71-12.53,35.08-35.7,35.08-60.76Z"/>
    <path class="cls-2" d="m1763.64,931.99v-49.92c0-12.55-6.69-24.14-17.56-30.41l-43.23-24.96c-10.87-6.27-24.25-6.27-35.12,0l-43.23,24.96c-10.87,6.27-17.56,17.87-17.56,30.41v49.92c0,12.55,6.69,24.14,17.56,30.41l43.23,24.96c10.87,6.27,24.25,6.27,35.12,0l43.23-24.96c10.87-6.27,17.56-17.87,17.56-30.41Z"/>
    <path class="cls-4" d="m133.6,969.84v-22.91c0-5.76-3.07-11.08-8.06-13.96l-19.84-11.46c-4.99-2.88-11.13-2.88-16.12,0l-19.84,11.46c-4.99,2.88-8.06,8.2-8.06,13.96v22.91c0,5.76,3.07,11.08,8.06,13.96l19.84,11.46c4.99,2.88,11.13,2.88,16.12,0l19.84-11.46c4.99-2.88,8.06-8.2,8.06-13.96Z"/>
    <path class="cls-5" d="m1837.1,156.34v-22.91c0-5.76-3.07-11.08-8.06-13.96l-19.84-11.46c-4.99-2.88-11.13-2.88-16.12,0l-19.84,11.46c-4.99,2.88-8.06,8.2-8.06,13.96v22.91c0,5.76,3.07,11.08,8.06,13.96l19.84,11.46c4.99,2.88,11.13,2.88,16.12,0l19.84-11.46c4.99-2.88,8.06-8.2,8.06-13.96Z"/>
    <path class="cls-1" d="m1220.5,765.87v-44.62c0-11.22-5.98-21.58-15.7-27.18l-38.64-22.31c-9.71-5.61-21.68-5.61-31.39,0l-38.64,22.31c-9.71,5.61-15.7,15.97-15.7,27.18v44.62c0,11.22,5.98,21.58,15.7,27.18l38.64,22.31c9.71,5.61,21.68,5.61,31.39,0l38.64-22.31c9.71-5.61,15.7-15.97,15.7-27.18Z"/>
    <path class="cls-3" d="m251.5,184.59v-65.62c0-16.5-8.8-31.73-23.09-39.98l-56.83-32.81c-14.28-8.25-31.88-8.25-46.17,0l-56.83,32.81c-14.28,8.25-23.09,23.49-23.09,39.98v65.62c0,16.5,8.8,31.73,23.09,39.98l56.83,32.81c14.28,8.25,31.88,8.25,46.17,0l56.83-32.81c14.28-8.25,23.09-23.49,23.09-39.98Z"/>
    <rect class="cls-6" width="1922" height="1080"/>
  </g>
</svg>